/* XPM */
static char * is_generator_xpm[] = {
"48 48 191 2",
"  	c None",
". 	c #BEC2CA",
"+ 	c #B2C2CE",
"@ 	c #A6B6C6",
"# 	c #92AAC2",
"$ 	c #7E92A6",
"% 	c #668296",
"& 	c #4E728E",
"* 	c #4A6682",
"= 	c #526E86",
"- 	c #AAAAB2",
"; 	c #92929E",
"> 	c #828296",
", 	c #B2B2BA",
"' 	c #B6B6BE",
") 	c #82AED6",
"! 	c #76A6D2",
"~ 	c #8EB2CE",
"{ 	c #9ABAD2",
"] 	c #A6C2D6",
"^ 	c #BACEDE",
"/ 	c #C6D6E2",
"( 	c #D6E6EA",
"_ 	c #B2C6D6",
": 	c #72869A",
"< 	c #D6D6DE",
"[ 	c #EEEEF2",
"} 	c #9696AA",
"| 	c #C2C2C6",
"1 	c #8A8E9E",
"2 	c #9A9AAA",
"3 	c #9A9AA2",
"4 	c #BABABE",
"5 	c #8AB6DA",
"6 	c #D2E6EE",
"7 	c #EAF2F6",
"8 	c #EEFAFA",
"9 	c #F2FAFE",
"0 	c #F6FAFE",
"a 	c #EAF6FA",
"b 	c #F6FEFE",
"c 	c #9292A6",
"d 	c #E6E6EE",
"e 	c #FEFEFE",
"f 	c #B2B2C2",
"g 	c #A6A6B2",
"h 	c #9E9EAA",
"i 	c #C6DAEA",
"j 	c #F2FAFA",
"k 	c #E2F2F6",
"l 	c #DEEEF6",
"m 	c #E6F6FA",
"n 	c #8AA6BE",
"o 	c #A2A2AE",
"p 	c #CECEDA",
"q 	c #FAFAFA",
"r 	c #B2AEBA",
"s 	c #AAAABA",
"t 	c #F6F6FA",
"u 	c #BABEC2",
"v 	c #DAEAF2",
"w 	c #D6EAF2",
"x 	c #9A9AAE",
"y 	c #DADAEA",
"z 	c #C6C6D6",
"A 	c #AEAEC2",
"B 	c #A6A6BA",
"C 	c #D2D2E6",
"D 	c #6A9AC6",
"E 	c #CADEEA",
"F 	c #CEE2EE",
"G 	c #C6DEEA",
"H 	c #8E8EA2",
"I 	c #BABACE",
"J 	c #AAAAB6",
"K 	c #86869E",
"L 	c #6292BA",
"M 	c #BED6E6",
"N 	c #C2DAE6",
"O 	c #BAD6E6",
"P 	c #82A6C6",
"Q 	c #B6B6BA",
"R 	c #7A7A92",
"S 	c #BEBED6",
"T 	c #9E9EBA",
"U 	c #B6B6D2",
"V 	c #C6C6DE",
"W 	c #CACAE2",
"X 	c #CECEE6",
"Y 	c #CECEE2",
"Z 	c #9E9EB6",
"` 	c #5E86AE",
" .	c #B2CEDE",
"..	c #BAD2E2",
"+.	c #B6D2E2",
"@.	c #8282A6",
"#.	c #B2B2D2",
"$.	c #BEBEDE",
"%.	c #BEBEDA",
"&.	c #BABADA",
"*.	c #C2C2DE",
"=.	c #C2C2DA",
"-.	c #9E9EAE",
";.	c #B2B2CA",
">.	c #567A9A",
",.	c #AEC6DA",
"'.	c #B6CEE2",
").	c #7AA2C2",
"!.	c #A2AAB2",
"~.	c #9292B2",
"{.	c #AEAED2",
"].	c #B6B6D6",
"^.	c #9A9AB2",
"/.	c #AECADE",
"(.	c #3E627E",
"_.	c #869AAA",
":.	c #8A8AAA",
"<.	c #A2A2CA",
"[.	c #AAAACE",
"}.	c #A6A6CE",
"|.	c #9E9ECA",
"1.	c #C6C6E2",
"2.	c #9EBED6",
"3.	c #AEC6DE",
"4.	c #AAC6DA",
"5.	c #929EAA",
"6.	c #7E7EA6",
"7.	c #9A9AC2",
"8.	c #9A9AC6",
"9.	c #9696C2",
"0.	c #9292C6",
"a.	c #9292C2",
"b.	c #A2A2CE",
"c.	c #365A76",
"d.	c #A6C6DA",
"e.	c #6E7E96",
"f.	c #666A8E",
"g.	c #8A8AB6",
"h.	c #AAAAD2",
"i.	c #A6A6D2",
"j.	c #AEAECE",
"k.	c #A6C2DA",
"l.	c #92B6CE",
"m.	c #767696",
"n.	c #7E7E9A",
"o.	c #8686B2",
"p.	c #9A9ACA",
"q.	c #626286",
"r.	c #26263E",
"s.	c #7292AE",
"t.	c #769ABA",
"u.	c #668EB2",
"v.	c #6A6A8E",
"w.	c #9696C6",
"x.	c #12122A",
"y.	c #3A3A4A",
"z.	c #0A0A1A",
"A.	c #4E4E66",
"B.	c #8282AA",
"C.	c #8E8EBA",
"D.	c #9292BE",
"E.	c #F2F2F2",
"F.	c #5A5A7A",
"G.	c #9696BA",
"H.	c #AEAECA",
"I.	c #9696AE",
"J.	c #A6A6AE",
"K.	c #02020E",
"L.	c #6A6A6A",
"M.	c #DEDEE6",
"N.	c #B2B6BE",
"O.	c #CACAE6",
"P.	c #A6A6C6",
"Q.	c #AEAEB6",
"R.	c #5A768E",
"S.	c #76769E",
"T.	c #B6B6DA",
"U.	c #CACAD6",
"V.	c #FAFAFE",
"W.	c #C6C6DA",
"X.	c #626A86",
"Y.	c #6A6E92",
"Z.	c #A2A2C2",
"`.	c #B2BEC6",
" +	c #8686A6",
".+	c #8A8A9A",
"++	c #82828E",
"@+	c #767682",
"#+	c #66667A",
"$+	c #B2B2BE",
"%+	c #6A6A8A",
"                                                                                                ",
"                                                                                                ",
"      . + @ # $ % & * = $                           - ; > ;           , '                       ",
"  + ) ! ) ) ~ { ] ^ / ( _ :                         > < [ } |       ' 1 2 3 4                   ",
"  ) 5 6 7 8 9 0 0 9 8 a b $                         c d e f g       c < e g h                   ",
"  ! i j 7 k k l l l l l m n             |           o p q < } g r g s t t g u                   ",
"  ! 6 l v v v v w w w 6 l n             > > ,       x p d y z A B A C [ < 2                     ",
"  D E w 6 6 F F F E G i F n           H B I H o J K A C C C y y y y y y z o                     ",
"  L M E i N N M M M M O N P         Q R I C S T T U V W W W W X X X C C Y Z o     J > g         ",
"  `  .M ........+.+.+.+.M P           g @.#.$.%.%.%.&.&.%.%.*.*.*.V V W W =.T -.2 B ;.c u       ",
"  >.,.O +.+.+.'.'.'. . .+.).: !.        o ~.{.#.#.#.#.#.#.].].].&.&.%.%.*.V =.I S C C ^.3       ",
"  & ] +. . ././././././. .).(.(.(.% _.u   :.<.[.}.<.|.|.|.|.|.<.}.[.{.#.].&.%.*.1.V A 1 r       ",
"  (.2. ././.3.3.3.4.4.4./.).5.% (.(.(.(.= 6.7.8.9.0.a.0.9.8.b.b.b.|.<.}.[.{.U &.&.B 2 |         ",
"  c.{ /.4.4.4.4.d.d.d.4.4.`     ' 5.e.* f.g.0.a.a.0.9.9.|.b.7.7.h.i.<.[.[.{.#.].j.x             ",
"  c.{ /.4.4.4.4.4.k.2.l.).@     R m.n.6.o.a.9.9.9.9.9.p.9.q.r.r.q.|.{.[.j.{.#.].j.} |           ",
"  = s.k.2.l.P t.u.n # @         v.g.9.a.9.9.9.9.9.9.w.|.q.x.y.y.z.A.i.{.[.{.#.].U ^.Q           ",
"    _.u.n # @                   q.B.C.a.9.9.9.9.9.a.|.D.r.y.d E.- F.G.{.[.{.#.].].H.I.c J.,     ",
"                                2 K m.6.C.9.9.9.9.a.i.}.x.A.E.e e q y %.[.[.#.].].&.U H.T R     ",
"      . + @ # $ % & * = $             g 6.a.9.9.9.D.b.X F.K.L.e E.e e q y &.{.#.].&.%.1.S K     ",
"  + ) ! ) ) ~ { ] ^ / ( _ :           ' n.D.9.9.9.a.a.&.S A.z.r.c M.t e e q y ].].H.T Z I.>     ",
"  ) 5 6 7 8 9 0 0 9 8 a b $           N.m.C.9.9.9.9.a.w.$.O.P.I.^.I.B < t e e W P.x J Q.Q.Q     ",
"  ! i j 7 k k l l l l l m n     u _.R.* S.a.9.9.9.9.9.9.w.h.$.1.T.8.o.@.U.V.e W ~.g             ",
"  ! 6 l v v v v w w w 6 l n _.R.(.(.* S.C.w.9.9.9.9.9.9.w.w.8.|.|.}.i.o.A t e W.I.              ",
"  D E w 6 6 F F F E G i F t.(.(.* X.Y.a.w.D.C.a.9.9.9.9.w.8.|.|.|.<.h.G.f t e W.I.Q             ",
"  L M E i N N M M M M O N ).: !.  , Y.o.6.n.@.6.D.9.9.9.w.8.|.|.|.<.[.G.f q e Y Z.H Q           ",
"  `  .M ........+.+.+.+.M P         c q.H u   H 6.D.9.9.8.8.|.|.|.<.i.~.`.[ [ Y ].Z.>           ",
"  >.,.O +.+.+.'.'.'. . .+.P           4         } g.w.w.8.8.|.|.|.<.}. +K .+++n.T T 1           ",
"  & ] +. . ././././././. .P                     c o.8.a.o.B.o.G.|.}.7.s ++@+h @+F.#+            ",
"  (.2. ././.3.3.3.4.4.4./.).                    m.D.9.6.} o 2  +7.}.g.$+u ++.+r J.@+>           ",
"  c.{ /.4.4.4.4.d.d.d.4.4.`                   o Y.D.B.K       g B.i.G.K     3 R .+' J.@+        ",
"  c.{ /.4.4.4.4.4.k.2.l.).@                   Q.m.Y.%+J       | m.7.g.R       u 3 @+> #+h       ",
"  = s.k.2.l.P t.u.n # @                           J.o           K v.n.3           4 - -         ",
"    _.u.n # @                                                                                   ",
"                                                                                                ",
"                                                                                                ",
"                                              M M M M M           M M         M M M M M M       ",
"                                            M (.(.(.(.(.M       M (.(.M     M (.(.(.(.(.(.M     ",
"                                          M (.(.(.M (.(.(.M     M (.(.M     M (.(.M M (.(.(.M   ",
"                                          M (.(.M   M (.(.M   M (.(.(.(.M   M (.(.M   M (.(.M   ",
"                                          M (.(.(.M M M M     M (.(.(.(.M   M (.(.M   M (.(.M   ",
"                                            M (.(.(.(.M     M (.(.M M (.(.M M (.(.M M (.(.(.M   ",
"                                              M (.(.(.(.M   M (.(.M M (.(.M M (.(.(.(.(.(.M     ",
"                                            M M M M (.(.(.M (.(.(.(.(.(.(.(.M (.(.M M M M       ",
"                                          M (.(.M   M (.(.M (.(.M M M M (.(.M (.(.M             ",
"                                          M (.(.(.M (.(.(.M (.(.M     M (.(.M (.(.M             ",
"                                            M (.(.(.(.(.M M (.(.M     M (.(.M (.(.M             ",
"                                              M M M M M     M M         M M   M M               ",
"                                                                                                "};
